<svg width="192" height="192" viewBox="0 0 192 192" xmlns="http://www.w3.org/2000/svg">
  <defs>
    <linearGradient id="bgGradient" x1="0%" y1="0%" x2="100%" y2="100%">
      <stop offset="0%" style="stop-color:#1a1a2e;stop-opacity:1" />
      <stop offset="100%" style="stop-color:#16213e;stop-opacity:1" />
    </linearGradient>
  </defs>
  
  <!-- Background circle -->
  <circle cx="96" cy="96" r="88" fill="url(#bgGradient)" stroke="#0f3460" stroke-width="4"/>
  
  <!-- Japanese character 習 (learn) -->
  <g transform="translate(96,96)">
    <!-- Main character strokes -->
    <path d="M-35,-40 L35,-40 M-35,-25 L35,-25 M-35,-10 L35,-10 M-35,5 L35,5 M-35,20 L35,20 M-35,35 L35,35" 
          stroke="#e94560" stroke-width="3" stroke-linecap="round"/>
    
    <!-- Vertical strokes -->
    <path d="M-20,-40 L-20,35 M0,-40 L0,35 M20,-40 L20,35" 
          stroke="#e94560" stroke-width="3" stroke-linecap="round"/>
    
    <!-- Accent elements -->
    <circle cx="-25" cy="-30" r="2" fill="#f39c12"/>
    <circle cx="25" cy="-30" r="2" fill="#f39c12"/>
    <circle cx="0" cy="25" r="2" fill="#f39c12"/>
  </g>
  
  <!-- Decorative elements -->
  <circle cx="40" cy="40" r="3" fill="#3498db" opacity="0.7"/>
  <circle cx="152" cy="40" r="3" fill="#3498db" opacity="0.7"/>
  <circle cx="40" cy="152" r="3" fill="#3498db" opacity="0.7"/>
  <circle cx="152" cy="152" r="3" fill="#3498db" opacity="0.7"/>
</svg>