<svg width="512" height="512" viewBox="0 0 512 512" xmlns="http://www.w3.org/2000/svg">
  <defs>
    <linearGradient id="bgGradient" x1="0%" y1="0%" x2="100%" y2="100%">
      <stop offset="0%" style="stop-color:#1a1a2e;stop-opacity:1" />
      <stop offset="100%" style="stop-color:#16213e;stop-opacity:1" />
    </linearGradient>
  </defs>
  
  <!-- Background circle -->
  <circle cx="256" cy="256" r="240" fill="url(#bgGradient)" stroke="#0f3460" stroke-width="8"/>
  
  <!-- Japanese character 習 (learn) -->
  <g transform="translate(256,256)">
    <!-- Main character strokes -->
    <path d="M-90,-110 L90,-110 M-90,-70 L90,-70 M-90,-30 L90,-30 M-90,10 L90,10 M-90,50 L90,50 M-90,90 L90,90" 
          stroke="#e94560" stroke-width="8" stroke-linecap="round"/>
    
    <!-- Vertical strokes -->
    <path d="M-50,-110 L-50,90 M0,-110 L0,90 M50,-110 L50,90" 
          stroke="#e94560" stroke-width="8" stroke-linecap="round"/>
    
    <!-- Accent elements -->
    <circle cx="-65" cy="-80" r="6" fill="#f39c12"/>
    <circle cx="65" cy="-80" r="6" fill="#f39c12"/>
    <circle cx="0" cy="60" r="6" fill="#f39c12"/>
  </g>
  
  <!-- Decorative elements -->
  <circle cx="100" cy="100" r="8" fill="#3498db" opacity="0.7"/>
  <circle cx="412" cy="100" r="8" fill="#3498db" opacity="0.7"/>
  <circle cx="100" cy="412" r="8" fill="#3498db" opacity="0.7"/>
  <circle cx="412" cy="412" r="8" fill="#3498db" opacity="0.7"/>
  
  <!-- Additional decorative rings -->
  <circle cx="256" cy="256" r="200" fill="none" stroke="#0f3460" stroke-width="2" opacity="0.3"/>
  <circle cx="256" cy="256" r="220" fill="none" stroke="#0f3460" stroke-width="1" opacity="0.2"/>
</svg>